<svg xmlns="http://www.w3.org/2000/svg" xmlns:xlink="http://www.w3.org/1999/xlink" width="40" zoomAndPan="magnify" viewBox="0 0 30 30.000001" height="40" preserveAspectRatio="xMidYMid meet" version="1.0"><defs><g/><clipPath id="2d5b589f55"><path d="M 16.199219 7.855469 L 29.261719 7.855469 L 29.261719 20.921875 L 16.199219 20.921875 Z M 16.199219 7.855469 " clip-rule="nonzero"/></clipPath><clipPath id="aedba467d7"><path d="M 16.199219 14.515625 C 16.199219 16.28125 16.898438 17.976562 18.148438 19.222656 C 19.398438 20.472656 21.089844 21.175781 22.855469 21.175781 C 24.625 21.175781 26.316406 20.472656 27.566406 19.222656 C 28.816406 17.976562 29.515625 16.28125 29.515625 14.515625 C 29.515625 12.75 28.816406 11.054688 27.566406 9.808594 C 26.316406 8.558594 24.625 7.855469 22.855469 7.855469 C 21.089844 7.855469 19.398438 8.558594 18.148438 9.808594 C 16.898438 11.054688 16.199219 12.75 16.199219 14.515625 Z M 16.199219 14.515625 " clip-rule="nonzero"/></clipPath><clipPath id="5b4b11135f"><path d="M 17 7.855469 L 29 7.855469 L 29 12 L 17 12 Z M 17 7.855469 " clip-rule="nonzero"/></clipPath><clipPath id="3d9fceb2ab"><path d="M 16.199219 14.515625 C 16.199219 16.28125 16.898438 17.976562 18.148438 19.222656 C 19.398438 20.472656 21.089844 21.175781 22.855469 21.175781 C 24.625 21.175781 26.316406 20.472656 27.566406 19.222656 C 28.816406 17.976562 29.515625 16.28125 29.515625 14.515625 C 29.515625 12.75 28.816406 11.054688 27.566406 9.808594 C 26.316406 8.558594 24.625 7.855469 22.855469 7.855469 C 21.089844 7.855469 19.398438 8.558594 18.148438 9.808594 C 16.898438 11.054688 16.199219 12.75 16.199219 14.515625 Z M 16.199219 14.515625 " clip-rule="nonzero"/></clipPath><clipPath id="5dda466498"><path d="M 16.199219 11 L 29.261719 11 L 29.261719 15 L 16.199219 15 Z M 16.199219 11 " clip-rule="nonzero"/></clipPath><clipPath id="11db6ab9c8"><path d="M 16.199219 14.515625 C 16.199219 16.28125 16.898438 17.976562 18.148438 19.222656 C 19.398438 20.472656 21.089844 21.175781 22.855469 21.175781 C 24.625 21.175781 26.316406 20.472656 27.566406 19.222656 C 28.816406 17.976562 29.515625 16.28125 29.515625 14.515625 C 29.515625 12.75 28.816406 11.054688 27.566406 9.808594 C 26.316406 8.558594 24.625 7.855469 22.855469 7.855469 C 21.089844 7.855469 19.398438 8.558594 18.148438 9.808594 C 16.898438 11.054688 16.199219 12.75 16.199219 14.515625 Z M 16.199219 14.515625 " clip-rule="nonzero"/></clipPath><clipPath id="af2667e41a"><path d="M 19 10 L 28 10 L 28 18 L 19 18 Z M 19 10 " clip-rule="nonzero"/></clipPath><clipPath id="f8e4772511"><path d="M 16.199219 14.515625 C 16.199219 16.28125 16.898438 17.976562 18.148438 19.222656 C 19.398438 20.472656 21.089844 21.175781 22.855469 21.175781 C 24.625 21.175781 26.316406 20.472656 27.566406 19.222656 C 28.816406 17.976562 29.515625 16.28125 29.515625 14.515625 C 29.515625 12.75 28.816406 11.054688 27.566406 9.808594 C 26.316406 8.558594 24.625 7.855469 22.855469 7.855469 C 21.089844 7.855469 19.398438 8.558594 18.148438 9.808594 C 16.898438 11.054688 16.199219 12.75 16.199219 14.515625 Z M 16.199219 14.515625 " clip-rule="nonzero"/></clipPath><clipPath id="43d8a8109b"><path d="M 18 14 L 29.261719 14 L 29.261719 20.921875 L 18 20.921875 Z M 18 14 " clip-rule="nonzero"/></clipPath><clipPath id="1398036714"><path d="M 16.199219 14.515625 C 16.199219 16.28125 16.898438 17.976562 18.148438 19.222656 C 19.398438 20.472656 21.089844 21.175781 22.855469 21.175781 C 24.625 21.175781 26.316406 20.472656 27.566406 19.222656 C 28.816406 17.976562 29.515625 16.28125 29.515625 14.515625 C 29.515625 12.75 28.816406 11.054688 27.566406 9.808594 C 26.316406 8.558594 24.625 7.855469 22.855469 7.855469 C 21.089844 7.855469 19.398438 8.558594 18.148438 9.808594 C 16.898438 11.054688 16.199219 12.75 16.199219 14.515625 Z M 16.199219 14.515625 " clip-rule="nonzero"/></clipPath><clipPath id="6540c28461"><path d="M 0.484375 12 L 5 12 L 5 18 L 0.484375 18 Z M 0.484375 12 " clip-rule="nonzero"/></clipPath></defs><g clip-path="url(#2d5b589f55)"><g clip-path="url(#aedba467d7)"><path fill="#004aad" d="M 22.855469 7.855469 C 26.53125 7.855469 29.511719 10.835938 29.511719 14.515625 C 29.511719 18.191406 26.53125 21.171875 22.855469 21.171875 C 19.179688 21.171875 16.199219 18.1875 16.199219 14.515625 C 16.199219 10.839844 19.179688 7.855469 22.855469 7.855469 Z M 22.855469 7.855469 " fill-opacity="1" fill-rule="evenodd"/></g></g><g clip-path="url(#5b4b11135f)"><g clip-path="url(#3d9fceb2ab)"><path fill="#004aad" d="M 22.855469 7.855469 C 25.339844 7.855469 27.507812 9.21875 28.648438 11.238281 L 17.0625 11.238281 C 18.203125 9.21875 20.371094 7.855469 22.855469 7.855469 Z M 22.855469 7.855469 " fill-opacity="1" fill-rule="evenodd"/></g></g><g clip-path="url(#5dda466498)"><g clip-path="url(#11db6ab9c8)"><path fill="#004aad" d="M 28.648438 11.238281 C 29.199219 12.203125 29.511719 13.320312 29.511719 14.511719 C 29.511719 14.660156 29.507812 14.804688 29.496094 14.949219 L 16.214844 14.949219 C 16.203125 14.808594 16.199219 14.660156 16.199219 14.515625 C 16.199219 13.324219 16.511719 12.207031 17.0625 11.238281 Z M 28.648438 11.238281 " fill-opacity="1" fill-rule="evenodd"/></g></g><g clip-path="url(#af2667e41a)"><g clip-path="url(#f8e4772511)"><path fill="#fffcf7" d="M 22.441406 11.925781 C 22.792969 11.914062 23.09375 11.929688 23.335938 11.96875 L 23.480469 12.003906 C 23.269531 12.128906 23.050781 12.320312 22.8125 12.570312 L 22.84375 12.628906 L 22.679688 12.921875 C 22.640625 12.996094 22.632812 13.070312 22.660156 13.136719 C 22.734375 13.246094 22.773438 13.332031 22.78125 13.394531 C 22.78125 13.535156 22.816406 13.683594 22.894531 13.84375 C 22.804688 13.863281 22.691406 13.847656 22.5625 13.796875 L 21.871094 13.5625 C 21.75 13.511719 21.617188 13.488281 21.472656 13.488281 L 21.277344 13.476562 C 21.273438 13.453125 21.269531 13.441406 21.261719 13.4375 C 21.25 13.429688 21.242188 13.417969 21.242188 13.402344 C 21.246094 13.386719 21.253906 13.375 21.265625 13.371094 C 21.277344 13.363281 21.292969 13.367188 21.304688 13.371094 C 21.328125 13.363281 21.355469 13.304688 21.371094 13.199219 C 21.417969 13.179688 21.433594 13.152344 21.417969 13.109375 C 21.46875 13 21.492188 12.933594 21.496094 12.910156 C 21.605469 12.863281 21.683594 12.808594 21.726562 12.75 C 22.089844 12.523438 22.292969 12.34375 22.332031 12.207031 Z M 23.671875 13.390625 C 23.847656 13.46875 24.003906 13.582031 24.148438 13.722656 C 24.148438 13.714844 24.152344 13.710938 24.15625 13.703125 C 24.023438 13.554688 23.855469 13.449219 23.671875 13.390625 Z M 23.535156 12.988281 C 23.546875 13.050781 23.523438 13.734375 23.460938 14.046875 C 23.464844 14.046875 23.488281 13.628906 23.535156 12.988281 Z M 20.976562 14.347656 L 20.964844 14.792969 C 20.976562 14.804688 20.996094 14.8125 21.011719 14.816406 L 21.015625 14.355469 Z M 21.09375 15.183594 C 21.09375 15.183594 21.09375 15.179688 21.089844 15.179688 C 21.0625 15.5625 21.070312 15.847656 21.0625 16.03125 C 21.066406 16.03125 21.070312 16.03125 21.078125 16.039062 C 21.109375 15.738281 21.113281 15.445312 21.09375 15.183594 Z M 26.859375 13.90625 C 26.664062 13.386719 26.191406 13.023438 25.644531 12.96875 C 25.09375 12.910156 24.558594 13.164062 24.261719 13.628906 C 24.582031 13.203125 25.105469 12.976562 25.636719 13.03125 C 26.171875 13.089844 26.632812 13.421875 26.859375 13.90625 Z M 24.640625 15.394531 C 24.933594 15.742188 25.398438 15.886719 25.839844 15.78125 C 26.28125 15.671875 26.621094 15.328125 26.722656 14.882812 C 26.589844 15.300781 26.253906 15.625 25.828125 15.730469 C 25.398438 15.832031 24.949219 15.707031 24.640625 15.394531 Z M 22.25 15.8125 C 22.074219 15.34375 21.671875 15 21.1875 14.898438 L 21.191406 14.964844 C 21.65625 15.0625 22.046875 15.375 22.25 15.8125 Z M 20.820312 14.867188 C 20.351562 14.882812 19.910156 15.132812 19.652344 15.535156 C 19.9375 15.15625 20.378906 14.933594 20.84375 14.925781 Z M 19.949219 17.226562 C 20.246094 17.570312 20.710938 17.71875 21.152344 17.609375 C 21.589844 17.503906 21.929688 17.15625 22.03125 16.714844 C 21.90625 17.132812 21.5625 17.453125 21.136719 17.5625 C 20.710938 17.660156 20.257812 17.535156 19.949219 17.226562 Z M 21.15625 16.105469 L 21.152344 16.117188 L 21.1875 15.210938 C 21.773438 15.386719 22.125 15.980469 22 16.578125 C 21.875 17.175781 21.316406 17.578125 20.710938 17.511719 C 20.101562 17.410156 19.667969 16.867188 19.707031 16.25 C 19.75 15.636719 20.25 15.152344 20.867188 15.136719 L 20.847656 16.191406 C 20.792969 16.203125 20.753906 16.246094 20.75 16.304688 C 20.742188 16.359375 20.773438 16.410156 20.820312 16.433594 C 20.871094 16.457031 20.929688 16.445312 20.96875 16.402344 C 21.03125 16.335938 21.101562 16.3125 21.179688 16.339844 C 21.179688 16.464844 21.113281 16.582031 21.011719 16.652344 C 20.925781 16.699219 20.828125 16.707031 20.738281 16.675781 C 20.648438 16.648438 20.574219 16.582031 20.535156 16.492188 C 20.484375 16.390625 20.492188 16.265625 20.558594 16.167969 C 20.621094 16.070312 20.734375 16.015625 20.851562 16.027344 L 20.851562 15.980469 C 20.695312 15.972656 20.550781 16.0625 20.484375 16.207031 C 20.417969 16.351562 20.449219 16.519531 20.5625 16.632812 C 20.675781 16.742188 20.839844 16.777344 20.984375 16.714844 C 21.128906 16.65625 21.222656 16.515625 21.21875 16.355469 C 21.230469 16.359375 21.246094 16.363281 21.253906 16.371094 C 21.273438 16.371094 21.292969 16.359375 21.296875 16.339844 C 21.304688 16.324219 21.296875 16.300781 21.277344 16.289062 C 21.246094 16.246094 21.238281 16.203125 21.273438 16.148438 C 21.269531 16.125 21.253906 16.105469 21.230469 16.101562 C 21.207031 16.097656 21.183594 16.113281 21.175781 16.132812 C 21.171875 16.136719 21.171875 16.136719 21.171875 16.136719 C 21.171875 16.128906 21.160156 16.117188 21.15625 16.105469 Z M 21.058594 16.078125 C 21.0625 16.082031 21.066406 16.082031 21.070312 16.082031 C 21.070312 16.082031 21.074219 16.085938 21.074219 16.085938 C 21.070312 16.148438 21.0625 16.195312 21.058594 16.261719 C 21.054688 16.265625 21.050781 16.214844 21.058594 16.078125 Z M 24.5 14.789062 C 24.496094 14.75 24.511719 14.714844 24.542969 14.695312 C 24.570312 14.675781 24.609375 14.667969 24.640625 14.683594 C 24.683594 14.691406 24.726562 14.679688 24.757812 14.648438 C 24.792969 14.625 24.808594 14.582031 24.808594 14.539062 C 24.808594 14.503906 24.835938 14.472656 24.867188 14.472656 C 24.792969 14.539062 24.871094 14.601562 24.78125 14.671875 C 24.726562 14.710938 24.652344 14.695312 24.582031 14.707031 C 24.546875 14.714844 24.515625 14.742188 24.5 14.789062 Z M 24.332031 14.503906 C 24.449219 14.621094 24.480469 14.753906 24.417969 14.910156 C 24.421875 14.921875 24.433594 14.945312 24.453125 14.984375 L 24.449219 14.984375 C 24.378906 14.832031 24.335938 14.667969 24.332031 14.503906 Z M 25.058594 14.636719 C 25.011719 14.613281 24.976562 14.582031 24.960938 14.542969 C 24.925781 14.453125 24.871094 14.433594 24.792969 14.492188 L 24.691406 14.324219 L 25.09375 14.386719 C 25.082031 14.457031 25.089844 14.53125 25.121094 14.597656 Z M 25.332031 14.265625 C 25.429688 14.191406 25.570312 14.199219 25.664062 14.285156 C 25.753906 14.375 25.761719 14.515625 25.683594 14.617188 C 25.605469 14.714844 25.464844 14.742188 25.359375 14.675781 C 25.460938 14.730469 25.589844 14.703125 25.660156 14.609375 C 25.730469 14.511719 25.722656 14.382812 25.640625 14.296875 C 25.558594 14.214844 25.429688 14.199219 25.332031 14.265625 Z M 25.304688 14.21875 C 25.429688 14.121094 25.601562 14.132812 25.710938 14.242188 C 25.820312 14.351562 25.828125 14.523438 25.738281 14.648438 C 25.640625 14.765625 25.46875 14.800781 25.335938 14.71875 C 25.464844 14.785156 25.621094 14.75 25.707031 14.632812 C 25.796875 14.519531 25.785156 14.355469 25.683594 14.257812 C 25.585938 14.152344 25.425781 14.136719 25.304688 14.21875 Z M 25.308594 14.175781 C 25.449219 14.0625 25.648438 14.078125 25.777344 14.203125 C 25.902344 14.328125 25.917969 14.53125 25.804688 14.671875 C 25.695312 14.8125 25.496094 14.851562 25.34375 14.757812 C 25.496094 14.835938 25.675781 14.792969 25.773438 14.660156 C 25.875 14.527344 25.863281 14.339844 25.746094 14.222656 C 25.628906 14.101562 25.445312 14.082031 25.308594 14.175781 Z M 25.234375 14.414062 C 25.234375 14.449219 25.242188 14.488281 25.253906 14.523438 C 25.300781 14.484375 25.296875 14.449219 25.234375 14.414062 Z M 25.210938 14.550781 C 25.195312 14.5 25.191406 14.453125 25.195312 14.402344 L 25.152344 14.394531 C 25.144531 14.453125 25.152344 14.515625 25.171875 14.570312 Z M 21.78125 10.375 L 21.808594 10.339844 L 21.886719 10.359375 L 21.902344 10.347656 L 21.800781 10.328125 L 21.757812 10.375 Z M 21.523438 10.640625 L 21.5625 10.59375 L 21.667969 10.617188 L 21.6875 10.597656 L 21.554688 10.570312 L 21.492188 10.632812 Z M 21.660156 10.492188 L 21.699219 10.445312 L 21.796875 10.46875 L 21.8125 10.449219 L 21.6875 10.425781 L 21.632812 10.484375 Z M 23.207031 13.265625 C 23.359375 13.480469 23.429688 13.742188 23.402344 14.003906 C 23.386719 13.738281 23.324219 13.488281 23.207031 13.265625 Z M 23.511719 14.683594 C 23.535156 14.644531 23.578125 14.644531 23.578125 14.660156 C 23.554688 14.664062 23.539062 14.671875 23.527344 14.691406 C 23.503906 14.730469 23.53125 14.792969 23.4375 14.800781 C 23.355469 14.808594 23.261719 14.714844 23.152344 14.726562 C 23.230469 14.695312 23.351562 14.792969 23.4375 14.789062 C 23.519531 14.785156 23.492188 14.726562 23.511719 14.683594 Z M 23.210938 13.148438 L 23.273438 13.09375 C 23.28125 13.140625 23.261719 13.1875 23.222656 13.242188 L 23.195312 13.199219 C 23.191406 13.175781 23.195312 13.160156 23.210938 13.148438 Z M 23.546875 13.796875 L 23.753906 14.027344 C 23.671875 14.015625 23.628906 14.046875 23.636719 14.121094 L 23.519531 14.199219 Z M 21.949219 13.738281 C 22.292969 13.855469 22.578125 13.945312 22.800781 13.996094 C 22.851562 14.011719 22.902344 14.023438 22.960938 14.03125 C 23.101562 14.332031 23.160156 14.550781 23.144531 14.683594 C 23.082031 14.648438 23.0625 14.660156 23.085938 14.722656 L 23.09375 14.746094 C 23.019531 14.832031 22.976562 14.890625 22.964844 14.929688 L 22.957031 14.890625 L 22.777344 14.75 C 22.882812 14.691406 22.953125 14.628906 22.988281 14.554688 C 23.023438 14.492188 22.984375 14.472656 22.933594 14.429688 L 22.449219 13.980469 C 22.410156 13.945312 22.382812 13.945312 22.335938 13.988281 L 22.261719 13.925781 C 22.242188 13.914062 22.222656 13.929688 22.207031 13.945312 C 22.1875 13.964844 22.171875 13.988281 22.1875 14.003906 L 22.242188 14.074219 C 22.214844 14.121094 22.214844 14.152344 22.234375 14.171875 L 22.476562 14.414062 L 22.460938 14.464844 C 21.964844 14.058594 21.640625 13.820312 21.503906 13.753906 C 21.480469 13.746094 21.472656 13.722656 21.476562 13.695312 C 21.484375 13.671875 21.507812 13.660156 21.53125 13.664062 C 21.722656 13.671875 21.859375 13.695312 21.949219 13.738281 Z M 21.253906 11.085938 C 21.234375 11.113281 21.257812 11.160156 21.324219 11.226562 L 21.320312 11.242188 C 21.3125 11.308594 21.332031 11.328125 21.386719 11.300781 C 21.40625 11.292969 21.414062 11.296875 21.421875 11.304688 C 21.421875 11.355469 21.433594 11.378906 21.46875 11.371094 C 21.519531 11.355469 21.523438 11.363281 21.488281 11.40625 C 21.472656 11.433594 21.488281 11.449219 21.539062 11.453125 C 21.542969 11.488281 21.5625 11.523438 21.589844 11.546875 C 21.660156 11.546875 21.738281 11.503906 21.828125 11.414062 C 21.820312 11.488281 21.804688 11.59375 21.789062 11.738281 C 21.757812 11.832031 21.65625 11.972656 21.480469 12.171875 C 21.355469 12.25 21.234375 12.371094 21.113281 12.527344 C 21.035156 12.507812 20.953125 12.546875 20.867188 12.640625 C 20.84375 12.667969 20.835938 12.691406 20.847656 12.726562 C 20.820312 12.765625 20.742188 12.832031 20.625 12.925781 C 20.601562 12.933594 20.589844 12.953125 20.601562 12.984375 C 20.617188 13.011719 20.625 13.042969 20.628906 13.085938 C 20.625 13.109375 20.625 13.144531 20.625 13.195312 C 20.636719 13.226562 20.640625 13.269531 20.636719 13.320312 C 20.636719 13.34375 20.644531 13.355469 20.664062 13.347656 C 20.664062 13.386719 20.683594 13.398438 20.71875 13.390625 C 20.75 13.339844 20.789062 13.277344 20.839844 13.207031 C 20.859375 13.304688 20.945312 13.347656 21.109375 13.335938 L 21.101562 13.433594 C 21.089844 13.449219 21.078125 13.464844 21.070312 13.484375 C 21.027344 13.652344 21.015625 13.847656 21.019531 14.074219 C 20.980469 14.089844 20.933594 14.113281 20.917969 14.144531 L 20.917969 14.304688 L 20.9375 14.332031 L 20.925781 14.605469 C 20.832031 14.59375 20.792969 14.660156 20.796875 14.800781 C 20.660156 14.800781 20.523438 14.824219 20.390625 14.875 C 19.660156 15.125 19.230469 15.878906 19.378906 16.640625 C 19.527344 17.398438 20.214844 17.929688 20.988281 17.886719 C 21.75 17.8125 22.347656 17.199219 22.398438 16.4375 C 22.449219 15.671875 21.941406 14.984375 21.195312 14.808594 L 21.21875 14.15625 C 21.261719 14.105469 21.28125 14.046875 21.28125 13.992188 C 21.421875 13.964844 21.542969 13.992188 21.648438 14.082031 C 22.003906 14.355469 22.390625 14.675781 22.800781 15.042969 C 22.613281 15.054688 22.535156 15.109375 22.5625 15.207031 C 22.566406 15.277344 22.6875 15.300781 22.941406 15.277344 C 22.945312 15.355469 23.011719 15.386719 23.144531 15.371094 L 23.335938 15.460938 C 23.503906 15.480469 23.671875 15.535156 23.832031 15.625 C 23.925781 15.632812 24.039062 15.605469 24.15625 15.539062 C 24.140625 15.46875 24.175781 15.394531 24.242188 15.363281 C 24.269531 15.40625 24.296875 15.445312 24.332031 15.484375 C 24.910156 16.136719 25.902344 16.207031 26.566406 15.644531 C 26.96875 15.289062 27.152344 14.75 27.058594 14.21875 C 26.925781 13.492188 26.304688 12.949219 25.5625 12.921875 C 25.003906 12.882812 24.472656 13.167969 24.199219 13.65625 C 24.066406 13.550781 23.921875 13.453125 23.773438 13.378906 C 24.023438 13.070312 24.261719 12.757812 24.496094 12.441406 C 24.347656 12.554688 24.148438 12.675781 23.898438 12.8125 C 24.285156 12.582031 24.546875 12.371094 24.683594 12.183594 L 24.699219 12.160156 L 24.703125 12.15625 C 24.808594 11.890625 24.707031 11.589844 24.464844 11.4375 C 23.898438 11.011719 23.195312 10.796875 22.484375 10.835938 C 22.421875 10.835938 22.363281 10.792969 22.339844 10.734375 C 22.300781 10.742188 22.257812 10.761719 22.222656 10.789062 C 22.226562 10.769531 22.222656 10.75 22.214844 10.734375 C 22.203125 10.71875 22.183594 10.707031 22.164062 10.703125 C 22.160156 10.675781 22.152344 10.652344 22.148438 10.625 C 22.089844 10.640625 22.113281 10.722656 22.058594 10.753906 C 22.023438 10.777344 21.964844 10.769531 21.863281 10.742188 C 21.746094 10.714844 21.707031 10.746094 21.628906 10.832031 C 21.671875 10.742188 21.730469 10.703125 21.800781 10.707031 C 21.847656 10.710938 21.980469 10.765625 22.046875 10.742188 C 22.066406 10.734375 22.078125 10.710938 22.082031 10.683594 C 22.097656 10.632812 22.117188 10.613281 22.140625 10.609375 C 22.121094 10.53125 22.085938 10.457031 22.039062 10.390625 C 21.984375 10.328125 21.914062 10.285156 21.832031 10.265625 C 21.804688 10.261719 21.796875 10.261719 21.78125 10.269531 C 21.683594 10.3125 21.597656 10.367188 21.523438 10.4375 C 21.570312 10.367188 21.679688 10.3125 21.746094 10.265625 C 21.753906 10.257812 21.75 10.242188 21.726562 10.246094 C 21.445312 10.300781 21.054688 10.550781 21.101562 10.882812 C 20.96875 11.121094 20.960938 11.199219 21.261719 11.070312 Z M 23.445312 14.984375 C 23.4375 14.902344 23.496094 14.824219 23.578125 14.808594 C 23.503906 14.839844 23.453125 14.90625 23.445312 14.984375 Z M 23.703125 15.003906 L 23.71875 15.015625 C 23.585938 15.089844 23.484375 15.109375 23.417969 15.078125 C 23.488281 15.089844 23.585938 15.0625 23.703125 15.003906 Z M 22.617188 15.167969 C 22.851562 15.191406 23.203125 15.113281 23.664062 14.925781 C 23.222656 15.132812 22.875 15.210938 22.617188 15.167969 Z M 21.070312 14.898438 C 21.074219 14.910156 21.070312 14.917969 21.058594 14.921875 C 20.910156 14.925781 20.839844 14.828125 20.84375 14.683594 C 20.882812 14.839844 20.910156 14.910156 21.070312 14.898438 Z M 24.398438 14.097656 C 24.523438 13.679688 24.875 13.375 25.300781 13.292969 C 25.730469 13.21875 26.164062 13.386719 26.425781 13.730469 C 26.742188 14.121094 26.777344 14.667969 26.515625 15.09375 C 26.25 15.519531 25.746094 15.738281 25.257812 15.632812 C 24.972656 15.558594 24.71875 15.382812 24.550781 15.136719 L 25.203125 14.746094 C 25.351562 14.894531 25.578125 14.917969 25.75 14.796875 C 25.921875 14.675781 25.980469 14.453125 25.886719 14.265625 C 25.816406 14.144531 25.695312 14.0625 25.550781 14.042969 C 25.386719 14.015625 25.300781 14.078125 25.179688 14.183594 L 25.054688 14.226562 Z M 21.390625 11.167969 C 21.359375 11.222656 21.328125 11.226562 21.296875 11.171875 C 21.328125 11.195312 21.363281 11.191406 21.390625 11.167969 Z M 22.0625 10.585938 C 22.042969 10.585938 22.03125 10.578125 22.027344 10.566406 C 22.039062 10.546875 22.054688 10.527344 22.078125 10.507812 L 22.066406 10.542969 C 22.066406 10.550781 22.070312 10.558594 22.078125 10.566406 C 22.074219 10.574219 22.070312 10.582031 22.0625 10.585938 Z M 21.996094 10.476562 C 21.988281 10.484375 21.992188 10.496094 22 10.507812 C 21.996094 10.519531 21.984375 10.527344 21.972656 10.53125 C 21.953125 10.527344 21.941406 10.511719 21.9375 10.492188 C 21.957031 10.472656 21.988281 10.453125 22.015625 10.4375 Z M 21.796875 10.292969 C 21.648438 10.410156 21.496094 10.554688 21.328125 10.726562 C 21.453125 10.539062 21.609375 10.394531 21.796875 10.292969 Z M 23.238281 15.21875 C 23.429688 15.203125 23.578125 15.203125 23.6875 15.222656 C 23.539062 15.230469 23.386719 15.230469 23.238281 15.21875 Z M 21.359375 12.722656 C 21.347656 12.75 21.335938 12.773438 21.320312 12.796875 C 21.308594 12.816406 21.25 12.863281 21.152344 12.941406 C 21.101562 12.96875 21.078125 13.011719 21.085938 13.082031 C 21.046875 13.109375 20.996094 13.117188 20.953125 13.09375 C 20.996094 13.035156 21.019531 12.96875 21.019531 12.894531 L 21.042969 12.894531 C 21.121094 12.816406 21.210938 12.757812 21.308594 12.71875 C 21.503906 12.617188 21.855469 12.429688 22.042969 12.253906 C 22.09375 12.164062 22.125 12.097656 22.164062 12.015625 C 22.164062 12.074219 22.089844 12.289062 22.042969 12.320312 C 21.886719 12.425781 21.582031 12.625 21.359375 12.722656 Z M 23.847656 14.039062 C 24.632812 14.164062 25.019531 14.246094 25.015625 14.253906 C 24.636719 14.210938 24.246094 14.140625 23.847656 14.039062 Z M 23.863281 14.425781 C 23.972656 14.859375 24.054688 15.085938 24.125 15.105469 C 24.183594 15.128906 24.25 15.132812 24.308594 15.109375 C 24.265625 15.15625 24.199219 15.164062 24.105469 15.128906 C 24.007812 15.019531 23.921875 14.785156 23.863281 14.425781 Z M 23.90625 14.453125 C 23.871094 14.351562 23.890625 14.277344 23.957031 14.230469 C 23.9375 14.375 23.945312 14.53125 23.972656 14.703125 Z M 23.761719 15.292969 C 23.761719 15.28125 23.769531 15.273438 23.78125 15.269531 C 23.773438 15.277344 23.773438 15.289062 23.78125 15.296875 C 23.785156 15.304688 23.796875 15.308594 23.804688 15.300781 C 23.804688 15.308594 23.792969 15.3125 23.78125 15.3125 C 23.769531 15.3125 23.761719 15.300781 23.761719 15.292969 Z M 23.773438 15.226562 C 23.804688 15.214844 23.839844 15.226562 23.855469 15.257812 C 23.871094 15.285156 23.863281 15.320312 23.839844 15.34375 C 23.851562 15.320312 23.851562 15.292969 23.839844 15.265625 C 23.824219 15.242188 23.800781 15.226562 23.773438 15.226562 Z M 21.597656 10.933594 L 21.386719 11.070312 L 21.363281 11.050781 Z M 25.171875 14.230469 C 25.253906 14.316406 25.347656 14.324219 25.457031 14.257812 C 25.417969 14.300781 25.359375 14.324219 25.304688 14.320312 C 25.25 14.316406 25.199219 14.28125 25.171875 14.230469 Z M 25.4375 14.40625 C 25.46875 14.390625 25.507812 14.394531 25.535156 14.421875 C 25.5625 14.445312 25.566406 14.484375 25.550781 14.515625 C 25.554688 14.488281 25.539062 14.457031 25.519531 14.4375 C 25.5 14.414062 25.46875 14.402344 25.4375 14.40625 Z M 25.4375 14.40625 " fill-opacity="1" fill-rule="evenodd"/></g></g><g clip-path="url(#43d8a8109b)"><g clip-path="url(#1398036714)"><path fill="#fffcf7" d="M 29.242188 16.402344 L 23.804688 17.710938 L 27.078125 17.460938 L 18.007812 19.074219 C 19.222656 20.363281 20.945312 21.167969 22.859375 21.167969 C 25.875 21.167969 28.425781 19.160156 29.242188 16.402344 Z M 29.511719 14.621094 C 29.503906 15.039062 29.460938 15.449219 29.378906 15.84375 L 18.152344 18.996094 L 23.003906 17.035156 L 24.140625 16.457031 L 24.609375 16.507812 L 27.527344 15.207031 L 28.457031 14.714844 Z M 29.511719 14.621094 " fill-opacity="1" fill-rule="evenodd"/></g></g><g fill="#fffcf7" fill-opacity="1"><g transform="translate(6.547023, 20.325048)"><g><path d="M 0.6875 -1.59375 C 0.769531 -1.59375 0.851562 -1.578125 0.9375 -1.546875 C 1.019531 -1.523438 1.078125 -1.503906 1.109375 -1.484375 L 1.171875 -1.4375 L 1.03125 -1.15625 C 1.019531 -1.164062 1.003906 -1.175781 0.984375 -1.1875 C 0.960938 -1.195312 0.921875 -1.210938 0.859375 -1.234375 C 0.804688 -1.253906 0.757812 -1.265625 0.71875 -1.265625 C 0.65625 -1.265625 0.609375 -1.25 0.578125 -1.21875 C 0.546875 -1.195312 0.53125 -1.164062 0.53125 -1.125 C 0.53125 -1.101562 0.535156 -1.082031 0.546875 -1.0625 C 0.566406 -1.039062 0.59375 -1.019531 0.625 -1 C 0.664062 -0.976562 0.695312 -0.960938 0.71875 -0.953125 C 0.75 -0.941406 0.796875 -0.925781 0.859375 -0.90625 C 0.953125 -0.851562 1.035156 -0.789062 1.109375 -0.71875 C 1.179688 -0.644531 1.21875 -0.5625 1.21875 -0.46875 C 1.21875 -0.382812 1.203125 -0.304688 1.171875 -0.234375 C 1.140625 -0.171875 1.09375 -0.117188 1.03125 -0.078125 C 0.976562 -0.046875 0.914062 -0.0195312 0.84375 0 C 0.78125 0.0195312 0.707031 0.03125 0.625 0.03125 C 0.5625 0.03125 0.492188 0.0195312 0.421875 0 C 0.359375 -0.0078125 0.304688 -0.0234375 0.265625 -0.046875 C 0.222656 -0.0664062 0.179688 -0.0859375 0.140625 -0.109375 C 0.109375 -0.128906 0.0820312 -0.144531 0.0625 -0.15625 L 0.046875 -0.171875 L 0.21875 -0.46875 C 0.238281 -0.457031 0.257812 -0.441406 0.28125 -0.421875 C 0.3125 -0.410156 0.359375 -0.382812 0.421875 -0.34375 C 0.492188 -0.3125 0.554688 -0.296875 0.609375 -0.296875 C 0.753906 -0.296875 0.828125 -0.347656 0.828125 -0.453125 C 0.828125 -0.472656 0.820312 -0.492188 0.8125 -0.515625 C 0.800781 -0.535156 0.78125 -0.550781 0.75 -0.5625 C 0.726562 -0.582031 0.707031 -0.597656 0.6875 -0.609375 C 0.664062 -0.617188 0.628906 -0.632812 0.578125 -0.65625 C 0.535156 -0.675781 0.5 -0.691406 0.46875 -0.703125 C 0.375 -0.753906 0.300781 -0.8125 0.25 -0.875 C 0.195312 -0.945312 0.171875 -1.023438 0.171875 -1.109375 C 0.171875 -1.253906 0.222656 -1.367188 0.328125 -1.453125 C 0.429688 -1.546875 0.550781 -1.59375 0.6875 -1.59375 Z M 0.6875 -1.59375 "/></g></g></g><g fill="#fffcf7" fill-opacity="1"><g transform="translate(7.917446, 20.325048)"><g><path d="M 0.015625 -1.25 L 0.015625 -1.5625 L 1.109375 -1.5625 L 1.109375 -1.25 L 0.734375 -1.25 L 0.734375 0 L 0.390625 0 L 0.390625 -1.25 Z M 0.015625 -1.25 "/></g></g></g><g fill="#fffcf7" fill-opacity="1"><g transform="translate(9.143615, 20.325048)"><g><path d="M 0.046875 -0.78125 C 0.046875 -1.007812 0.117188 -1.203125 0.265625 -1.359375 C 0.421875 -1.515625 0.609375 -1.59375 0.828125 -1.59375 C 1.046875 -1.59375 1.226562 -1.515625 1.375 -1.359375 C 1.53125 -1.203125 1.609375 -1.007812 1.609375 -0.78125 C 1.609375 -0.550781 1.535156 -0.359375 1.390625 -0.203125 C 1.242188 -0.046875 1.054688 0.03125 0.828125 0.03125 C 0.597656 0.03125 0.410156 -0.046875 0.265625 -0.203125 C 0.117188 -0.359375 0.046875 -0.550781 0.046875 -0.78125 Z M 0.421875 -0.78125 C 0.421875 -0.695312 0.429688 -0.617188 0.453125 -0.546875 C 0.484375 -0.484375 0.53125 -0.425781 0.59375 -0.375 C 0.65625 -0.332031 0.734375 -0.3125 0.828125 -0.3125 C 0.960938 -0.3125 1.0625 -0.359375 1.125 -0.453125 C 1.195312 -0.546875 1.234375 -0.65625 1.234375 -0.78125 C 1.234375 -0.90625 1.195312 -1.015625 1.125 -1.109375 C 1.0625 -1.203125 0.960938 -1.25 0.828125 -1.25 C 0.703125 -1.25 0.601562 -1.203125 0.53125 -1.109375 C 0.457031 -1.015625 0.421875 -0.90625 0.421875 -0.78125 Z M 0.421875 -0.78125 "/></g></g></g><g fill="#fffcf7" fill-opacity="1"><g transform="translate(10.903141, 20.325048)"><g><path d="M 0.109375 -1.5625 L 0.671875 -1.5625 C 0.816406 -1.5625 0.9375 -1.519531 1.03125 -1.4375 C 1.132812 -1.351562 1.1875 -1.238281 1.1875 -1.09375 C 1.1875 -0.976562 1.15625 -0.878906 1.09375 -0.796875 C 1.03125 -0.722656 0.953125 -0.671875 0.859375 -0.640625 L 1.390625 0 L 0.953125 0 L 0.46875 -0.609375 L 0.46875 0 L 0.109375 0 Z M 0.46875 -0.875 L 0.515625 -0.875 C 0.546875 -0.875 0.570312 -0.875 0.59375 -0.875 C 0.613281 -0.875 0.640625 -0.875 0.671875 -0.875 C 0.703125 -0.882812 0.722656 -0.894531 0.734375 -0.90625 C 0.753906 -0.925781 0.769531 -0.945312 0.78125 -0.96875 C 0.800781 -1 0.8125 -1.03125 0.8125 -1.0625 C 0.8125 -1.101562 0.800781 -1.132812 0.78125 -1.15625 C 0.769531 -1.1875 0.753906 -1.207031 0.734375 -1.21875 C 0.722656 -1.238281 0.703125 -1.25 0.671875 -1.25 C 0.640625 -1.257812 0.613281 -1.265625 0.59375 -1.265625 C 0.570312 -1.273438 0.546875 -1.28125 0.515625 -1.28125 L 0.46875 -1.28125 Z M 0.46875 -0.875 "/></g></g></g><g fill="#fffcf7" fill-opacity="1"><g transform="translate(12.357078, 20.325048)"><g><path d="M 1 -1.5625 L 1 -1.25 L 0.46875 -1.25 L 0.46875 -0.9375 L 0.984375 -0.9375 L 0.984375 -0.625 L 0.46875 -0.625 L 0.46875 -0.3125 L 1 -0.3125 L 1 0 L 0.109375 0 L 0.109375 -1.5625 Z M 1 -1.5625 "/></g></g></g><g fill="#fffcf7" fill-opacity="1"><g transform="translate(6.253708, 17.502644)"><g><path d="M 0.328125 -4.453125 L 1.703125 -4.453125 C 2.117188 -4.453125 2.453125 -4.359375 2.703125 -4.171875 C 2.953125 -3.992188 3.078125 -3.707031 3.078125 -3.3125 C 3.078125 -2.863281 2.890625 -2.546875 2.515625 -2.359375 C 3.148438 -2.242188 3.46875 -1.867188 3.46875 -1.234375 C 3.46875 -0.859375 3.335938 -0.554688 3.078125 -0.328125 C 2.816406 -0.109375 2.460938 0 2.015625 0 L 0.328125 0 Z M 1.34375 -2.703125 L 1.421875 -2.703125 C 1.640625 -2.703125 1.804688 -2.738281 1.921875 -2.8125 C 2.035156 -2.894531 2.09375 -3.03125 2.09375 -3.21875 C 2.09375 -3.519531 1.867188 -3.671875 1.421875 -3.671875 L 1.34375 -3.671875 Z M 1.34375 -0.78125 L 1.65625 -0.78125 C 2.15625 -0.78125 2.40625 -0.945312 2.40625 -1.28125 C 2.40625 -1.476562 2.34375 -1.617188 2.21875 -1.703125 C 2.09375 -1.785156 1.90625 -1.828125 1.65625 -1.828125 L 1.34375 -1.828125 Z M 1.34375 -0.78125 "/></g></g></g><g clip-path="url(#6540c28461)"><g fill="#fffcf7" fill-opacity="1"><g transform="translate(0.599397, 17.502644)"><g><path d="M 4.34375 -2.484375 L 4.34375 -1.53125 C 4.226562 -1 3.976562 -0.597656 3.59375 -0.328125 C 3.207031 -0.0546875 2.773438 0.078125 2.296875 0.078125 C 1.691406 0.078125 1.175781 -0.144531 0.75 -0.59375 C 0.332031 -1.039062 0.125 -1.582031 0.125 -2.21875 C 0.125 -2.863281 0.328125 -3.410156 0.734375 -3.859375 C 1.148438 -4.304688 1.671875 -4.53125 2.296875 -4.53125 C 3.015625 -4.53125 3.582031 -4.273438 4 -3.765625 L 3.34375 -3.046875 C 3.101562 -3.421875 2.769531 -3.609375 2.34375 -3.609375 C 2.03125 -3.609375 1.765625 -3.472656 1.546875 -3.203125 C 1.328125 -2.929688 1.21875 -2.601562 1.21875 -2.21875 C 1.21875 -1.84375 1.328125 -1.519531 1.546875 -1.25 C 1.765625 -0.988281 2.03125 -0.859375 2.34375 -0.859375 C 2.601562 -0.859375 2.828125 -0.9375 3.015625 -1.09375 C 3.210938 -1.25 3.3125 -1.453125 3.3125 -1.703125 L 2.296875 -1.703125 L 2.296875 -2.484375 Z M 4.34375 -2.484375 "/></g></g></g></g><g fill="#fffcf7" fill-opacity="1"><g transform="translate(4.507581, 17.502644)"><g/></g></g><g fill="#fffcf7" fill-opacity="1"><g transform="translate(9.937211, 17.502644)"><g><path d="M 1.34375 -4.453125 L 1.34375 0 L 0.328125 0 L 0.328125 -4.453125 Z M 1.34375 -4.453125 "/></g></g></g><g fill="#fffcf7" fill-opacity="1"><g transform="translate(11.27474, 17.502644)"><g><path d="M 4.375 0 L 2.96875 0 L 1.34375 -1.890625 L 1.34375 0 L 0.328125 0 L 0.328125 -4.453125 L 1.34375 -4.453125 L 1.34375 -2.625 L 2.859375 -4.453125 L 4.09375 -4.453125 L 2.296875 -2.34375 Z M 4.375 0 "/></g></g></g><g fill="#fffcf7" fill-opacity="1"><g transform="translate(15.520092, 17.502644)"><g><path d="M 2.875 -4.453125 L 2.875 -3.5625 L 1.34375 -3.5625 L 1.34375 -2.671875 L 2.796875 -2.671875 L 2.796875 -1.78125 L 1.34375 -1.78125 L 1.34375 -0.890625 L 2.875 -0.890625 L 2.875 0 L 0.328125 0 L 0.328125 -4.453125 Z M 2.875 -4.453125 "/></g></g></g></svg>